<mxfile host="app.diagrams.net" modified="2023-08-14T22:37:18.199Z" agent="Mozilla/5.0 (Macintosh; Intel Mac OS X 10_15_7) AppleWebKit/537.36 (KHTML, like Gecko) Chrome/115.0.0.0 Safari/537.36" version="21.6.8" etag="7dHUZT0AMqQx6_lxlg47" type="github">
  <diagram name="Page-1" id="eaxNAvWFEbhS-vrm7c4U">
    <mxGraphModel>
      <root>
        <mxCell id="0" />
        <mxCell id="1" parent="0" />
      </root>
    </mxGraphModel>
  </diagram>
</mxfile>
